<?xml version="1.0" encoding="utf-8"?>
<svg viewBox="0 0 500 500" xmlns="http://www.w3.org/2000/svg">
  <g transform="matrix(0.261433, 0, 0, 0.261433, -143.819733, -143.158569)" style="">
    <g>
      <path fill="#34A853" d="M1786.69,886.661c-133.403,88.014-226.852,193.56-298.345,425.029 c-60.255,195.089,30.05,371.474,30.05,371.474l20.35,6.284l20.332,6.284c0,0,174.059-94.734,234.313-289.83 C1865.903,1171.135,1823.033,966.396,1786.69,886.661z"/>
      <path fill="#1D8735" d="M1559.077,1695.732c0,0,174.059-94.734,234.313-289.83c72.513-234.768,29.643-439.507-6.7-519.242 l-247.945,802.787L1559.077,1695.732z"/>
    </g>
    <g>
      <path fill="#34A853" d="M2058.516,994.903c-153.237,45.403-273.346,119.203-409.078,319.866 c-114.396,169.128-79.304,364.153-79.304,364.153l17.643,11.936l17.622,11.924c0,0,194.092-40.011,308.49-209.14 C2051.555,1290.116,2070.091,1081.759,2058.516,994.903z"/>
      <path fill="#1D8735" d="M1605.398,1702.781c0,0,194.092-40.011,308.49-209.14c137.666-203.525,156.202-411.882,144.627-498.738 l-470.739,695.955L1605.398,1702.781z"/>
    </g>
    <g>
      <path fill="#1D8735" d="M1231.79,1423.078c84.507,185.877,269.171,257.783,269.171,257.783l19.368-8.81l19.392-8.818 c0,0,67.213-186.409-17.294-372.284c-100.264-220.537-206.339-313.383-349.828-383.771 C1146.661,990.876,1130.096,1199.398,1231.79,1423.078z"/>
      <path fill="#34A853" d="M1500.961,1680.861c0,0-184.664-71.906-269.171-257.783c-101.694-223.68-85.129-432.202-59.191-515.9 l347.73,764.874L1500.961,1680.861z"/>
    </g>
    <g>
      <path fill="#1D8735" d="M1115.082,1524.879c114.4,169.131,308.489,209.142,308.489,209.142l17.624-11.924l17.641-11.936 c0,0,35.096-195.023-79.304-364.151c-135.731-200.665-255.839-274.465-409.078-319.868 C958.876,1112.999,977.416,1321.356,1115.082,1524.879z"/>
      <path fill="#34A853" d="M1423.57,1734.021c0,0-194.089-40.011-308.489-209.142c-137.666-203.522-156.205-411.88-144.628-498.737 l470.741,695.955L1423.57,1734.021z"/>
    </g>
    <g>
      <path fill="#34A853" d="M1516.623,614.959c-128.754,156.631-202.513,319.55-202.513,626.877 c0,259.033,175.491,439.025,175.491,439.025h27.022h26.997c0,0,175.512-179.993,175.512-439.025 C1719.132,930.122,1590.527,698.001,1516.623,614.959z"/>
      <path fill="#1D8735" d="M1543.62,1680.861c0,0,175.512-179.993,175.512-439.025c0-311.714-128.604-543.835-202.509-626.877 v1065.902H1543.62z"/>
    </g>
    <path fill="#EFF0F2" d="M2003.76,1593.378h-446.977h-116.234H993.574c-241.364,0-98.341,408.009-22.336,535.245 c84.921,144.797,201.135,258.853,312.888,258.853h156.423h116.234h156.422c116.232,0,227.968-114.056,312.905-258.853 C2102.098,2001.387,2249.599,1593.378,2003.76,1593.378z"/>
    <path fill="#D3D3D3" d="M2003.76,1593.378h-150.419c30.243,70.957,46.995,149.042,46.995,231.047 c0,264.398-173.982,488.156-413.704,563.051h70.151h156.422c116.232,0,227.968-114.056,312.905-258.853 C2102.098,2001.387,2249.599,1593.378,2003.76,1593.378z"/>
  </g>
</svg>