<?xml version="1.0" encoding="utf-8"?>
<!-- Generator: Adobe Illustrator 26.0.2, SVG Export Plug-In . SVG Version: 6.00 Build 0)  -->
<svg version="1.1" id="Layer_1" xmlns="http://www.w3.org/2000/svg" xmlns:xlink="http://www.w3.org/1999/xlink" x="0px" y="0px"
	 viewBox="0 0 1450 2239" style="enable-background:new 0 0 1450 2239;" xml:space="preserve">
<style type="text/css">
	.st0{fill:#FFFFFF;}
	.st1{fill:#FFD3AE;}
	.st2{fill:none;}
	.st3{fill:#F25C5C;stroke:#000000;stroke-width:30;stroke-miterlimit:10;}
	.st4{font-family:'ComicSansMS';}
	.st5{font-size:217.3976px;}
</style>
<g>
	<rect class="st0" width="1450" height="2239"/>
	<g>
		<path class="st1" d="M1129.7,163.6c3.9,11.6-2.8,20-13,24.7c-13.1,7-26.3,13.7-39.4,20.7c-5.6,3-11.1,6-16.8,8.8
			c-0.3,0.2-13.2,5.1-8,6.8c13.9,7.9,55.1,10.3,46.2,34.1c-5.4,14.5-20.1,8.3-30.6,4.5c-12.5-4.5-25.1-8.6-37.6-13.4
			c-9.5-3.6-24.9-6-31.8-13.8c-7.5-8.5-1.8-21,6.8-25.9c13.4-7.4,26.6-15,40-22.2c5.7-3,26.7-9.8,28.8-15.1
			c-14.9-9.1-49.8-7.1-43-31.7c0-0.1,0-0.1,0.1-0.2c0,0,0-0.1,0-0.1c0.1-0.3,0.2-0.7,0.3-1.1c0,0,0-0.1,0-0.1
			c5-13.9,19.5-8,29.8-4.1c11.4,4.3,22.9,8.1,34.3,12.3C1106.8,151.7,1122.3,154.6,1129.7,163.6z"/>
		<path d="M1379.2,1328.5c1.9,83.2,8.8,167-1.3,249.9c-2.2,17.7-5.1,37.5-12,54c-6.4,15.4-12.6,36.3-27,46.4
			c-31,31.2-72.3,3.3-93.4-23.9c-24.1-31.2-32-70.2-38.3-108.2c-6.9-41.7-8.8-84.9-9.1-127.2c-0.7-85.5,0.8-171,0-256.6
			c-0.4-39.7-2.3-86.3-28.3-118.9c-27.4-34.3-63.7-38-104.5-26.5c-18.6,5.2-37.7,12.2-57,13.7c-23.4,1.9-46.7,2-70.2,2.2
			c-20.6,0.2-41.4-0.7-61.9-3c-9.5-1-19-2.8-28.6-2.7c-10.7,0.2-21.5,4.7-32.3,5.9c-41.5,4.7-84.4,6.2-126.2,6.4
			c-19.9,0.1-40.1,0.6-59.5-4.2c-8.8-1.2-17.5-3.5-25.5-7.4c-11.3-5.6-13-1.1-23.4,4.5c-17.7,9.5-31.5,4.2-49.1-1.4
			c-8.5-2.7-15.3,4.3-23.3,6.2c-9.7,2.4-21.6,2.3-30.5-2.5c-10.7-5.7-11.4-3.4-22.1,1.4c-8.9,3.9-18.6,6-28.3,5.9
			c-9.2,0.1-17.3-4.9-24.5-9.9c-10.4-6.9-12.1-14.4-25.3-10.7c-39.9,11.3-81.3-8.4-95.4-47.7c-6.8-19-7.3-41.8-3.1-61.4
			c2.3-10.6,6.3-14.8-2.7-22c-9.4-7.6-18.7-15.2-27.2-23.8c-56.4-56.4-88.1-130.8-86.9-210.7c0.1-9.8-0.1-20.4,2.1-30
			c2.3-9.9,0.6-15.2-7.1-22.2c-15.9-16.2-32-31.5-45.9-49.6c-16.7-21.7-57.7-65.2-40.6-95.2c8.1-14.2,33.2-21.8,48.5-22.8
			c21.1-1.4,42.3-5,63.5-6.5c21.1-1.5,42.2-1.6,63.3-2.1c9.3-0.2,18.7-0.2,28-0.4c4.9,0.4,17.9-16.2,22.1-19.6
			c62.1-50.6,137.7-87.8,216.2-104.4c20.5-4.3,41.2-7,61.9-9.6c9.2-1.1,18.5-1.2,27.8-2.1c8.5-0.9,16.1-14.6,20.7-20.6
			c24.5-31.8,53.8-58.8,82.7-86.5c8.2-7.9,17.3-14.6,26.9-20.6c15.1-8.7,33.6-17.4,49.8-5.3c16.1,12,22.7,33.2,25.6,52.1
			c6.5,41.5,12.6,83.2,17.6,124.9c1,8.5-1.7,23.5,6.6,27.2c8.1,3.6,15.4,8.9,22.3,14.5c15.7,12.6,27.5,26.9,40.2,42.3
			c23.9,29,40.4,72.7,46.1,109.6c1.8,9.6,3.9,19.1,4.8,28.8c10.1-0.5,20.2,1.2,30,3.5c21.2,4.2,41.2,11.6,60.7,20.8
			c35.3,16.7,67.5,41.9,90.9,73.4c23.9,32.1,41.8,69.9,50.3,109.1c3.9,21.1,6.9,42.2,8.6,63.7c0.8,9.9,0.8,19.9,0.9,29.8
			c0.1,9.1,17.7,15.2,25.2,20c68.3,44.1,120.8,107.6,137.8,188.3c9.3,44.1,14.9,88.3,20.2,133
			C1375,1242.3,1378.2,1286.1,1379.2,1328.5z M1342.1,1515.3c1.8-13.3,0.6-27.4,0.6-40.7c0-5.9,0.8-43.2-3.7-42.8c0,0,0,0,0,0
			c-8.2,15.1-29.4,21.1-45.6,20.4c-10.8-0.3-20.5,0-31.1-3c-8.6-2.5-21.5-12.7-30-12.2c4.3,12.2,3.3,26.3,3.9,39
			c0.8,14.9,1.9,29.8,3.4,44.6c1.2,12.2,1,22.8,11.8,29.7c12.4,7.9,28.1,7.9,42.3,7.7c12.6-0.2,25.6-2.2,37.1-7.8
			c6-2.9,11.3-4,11.3-11.1C1342,1531.2,1341.9,1523.2,1342.1,1515.3z M1331.9,1329.2c10.2-4,7.8-7.5,6.9-17.4
			c-0.7-8.3-0.4-16.8-0.8-25.2c-0.4-7.5,0.4-17.2-2-24.3c-6.7-0.3-14.6,4-20.9,5.8c-14.2,4-30.5,4.7-45.2,2.5
			c-7.7-1.2-14.2-4.4-20.8-8.5c-4.8-3-10-11.5-15.5-12.5c3.7,14.1,3.2,30.7,2.9,45.1c-0.2,9.3-0.6,18.5-0.5,27.8
			c0.1,8.4,2.5,7.5,7.8,12.4C1263.9,1353.2,1310.1,1337.7,1331.9,1329.2z M1317.8,1165.7c9-8.5,8.8-10.8,8.1-22.8
			c-0.6-10.1-2-20.2-4-30.2c-0.7-3.5-0.9-9.3-3.3-12.2c-2.4-2.9-10.8,3.5-13.7,4c-24.8,4.9-47.9,6.1-73.1,7.3
			c1.1,9.8-1.6,55.5,6.6,57.8c17.5,5,34.7,11,53,6.2C1300.5,1173.5,1309.8,1170.9,1317.8,1165.7z M1285.2,1007
			c5.8-5.5-26.6-47.9-34.7-47c-1.1,22.4-23.7,39.4-40.7,51.5c-10.4,7.4-14.9,8.2-7.4,19.4c3.6,5.4,6.6,11.1,9.6,16.8
			c1.3,3.2,11.5,0.4,13.6,0C1248.3,1044.4,1270.8,1023.7,1285.2,1007z M1174.8,915.8c3.6-8.1,8-12.9-0.6-17.8
			c-6.9-4-13.5-8.4-20.7-11.9c-9.4-5.5-6.5-11.7-5.6-21.8c0.7-8.1,1.4-16.1,1.2-24.2c-0.3-10.9,2.6-18.2-9.4-19.6
			c-13.9-1.7-32.4-5.1-43.7-13.8c-15.3-14.1,0.1-21.4,11.6-27.8c6.8-3.8,12.4-10.1,18.3-15.1c9-7.7,12.1-8.9,7.9-20.7
			c-3.4-9.4-3.4-9.3-11.9-6.1c-9.4,3.9-18.9,7.8-28.6,10.8c-9.7,3-32,10.3-35.9-4.3c-3.4-12.7,14.9-28.4,20.2-38.8
			c5.1-9.9,18.7-30.3,10.7-39.7c-3.3-4-6.2-8.9-11.6-9.7c-5.4,7.2-11.6,13.2-18.3,19.2c-11.7,10.4-23.8,21.7-39,26.6
			c-21.4,7-15.6-13.2-9.2-25.3c8.1-15.3,9.6-33.8,11.2-50.8c0.3-3.3,0.6-6.5,0.8-9.8c-4.8-1.6-9.5-3.5-14.2-5.4
			c-7.5-3-16.5-7.8-24.8-6.8c-3.1,25-10.1,54.2-28.1,73c-5.1,5.4-19.2,21.2-25.4,8.3c-5.7-12,1.4-28.1-0.8-40.8
			c-14.3,31.9-23.7,64.5-43.4,93.9c-3,6.1,4.2,8.1,8.2,11.9c6.9,5.5,13,14.1,18.1,21.2c10.2,14.1,16.9,31,21.4,47.7
			c2.4,9,6.2,40.3-10.6,22.7c-11.6-12.2-22-25.3-34.8-36.4c-3.7-3.2-34.2-29-37.3-23.1c-8.2,12.7-23,21.8-30,34.8
			c17.7,11.8,32.8,21.5,43.8,40.8c3.2,5.6,11.3,23.1,2.4,27.4c-7.8,3.8-17.1-5.6-21.9-10.3c-13.7-13.4-28.1-22.2-46.4-28.2
			c-11.7-3.9-14,0.5-22.9,7.7c-4,3.2-18.6,10.2-19.3,15.8c7.8,3.2,18.2,8.3,23.1,15.4c4.8,6.9,1.1,13.3-6.8,14.1
			c-20,2-40,3.2-59.9,6c-35.7,5.1-80,17.9-88.6,59c-3.1,15.1-0.8,36.7,20.4,34c19.1-2.4,18.2-34,35.5-38c13.1-3,20.1,23.9,26.1,31.6
			c14,18.1,31.7-0.1,42.8-11c5.2-5.1,12.3-14.7,19.7-16.6c9.3-2.4,10.9,7,13.5,13.1c8.1,19.8,30.6,18.2,47.3,11.3
			c8.2-3.4,16-7.9,23.1-13.2c4.5-2.9,15.3-15.9,20.3-7.9c3.8,7.4,4.3,16,3.4,24.2c9.8,4.3,25.5,3.2,36.1,3.8
			c40.8,2.4,85.2,4.1,125.1-6.2c16.1-4.2,28.8-13,45.9-15.1c9.7-1.2,19.5-0.8,29.3-0.7c5.8,0.8,21.9,5.9,26.4,0.6
			c9.8-11.5,17.8-23.6,24.8-36.9C1167.4,929.8,1171.6,923.1,1174.8,915.8z M891.8,514.8c4.8-2.9,8.5-3.6,6.8-9.6
			c-1.9-6.7-4.2-13.5-7-19.8c-3.4-7.5-11.4,1.1-16.7,4.3c-6.5,4.1-13.4,7.4-20.3,10.6c-10.7,5.1-26.2,12.6-38.5,10.2
			c-16.6-3.3-0.3-27.1,4.3-34.2c7.9-12.3,17-23.8,26.8-34.8c3.9-4.4,12.5-9.8,8.5-15.7c-3.7-5.4-9-10-13.8-14.4
			c-10.6-9.7-23.2-17.9-36.2-24.1c-7-3.4-11.8-2.6-11.9-11c-0.1-8.4-0.5-16.8-1.4-25.2c-3.7-32.3-8.3-64.4-11.8-96.7
			c-1.7-15.8-6.3-87.8-35.1-61.5c-29.5,27.9-57,58.1-85.1,87.4c-13.8,14.3-28.3,28.1-41.4,43.1c-7,6.8-12.4,4.7-21.7,4
			c-9.2-0.7-26.9-0.6-34.9,4.5c19.3,15.9,35.5,42,40.5,66.5c5.4,18.8,1.4,64.1-28,45.3c-22.4-14.3-37.6-41.6-55.3-61.1
			c-9.7-10.7-19.4-21.3-29.4-31.6c-8.4-8.7-25.3,1.1-35.5,4.8c3.2,8.3,11.7,16,16.8,23.3c5,7.5,9.5,15,13.6,23.1
			c9.7,19.5,12.5,39.1,12.9,60.6c0.1,7.4,0.3,50.7-18.5,37.3c-16.2-9.4-25.2-31.6-36.7-45.9c-12.6-15.7-26.8-30.8-41.7-44.4
			c-6.2-5.6-12.6-14.5-20.3-18.2c-5-2.4-21.3,11.8-25.6,14.7c-1.8,1.2-18.5,12.2-15.7,13.8c7.5,6.2,15.6,11.6,23,18
			c15.7,12.9,32.9,28.1,42,46.6c6.7,13.6,15.4,39.7,4,53.3c-13.7,12.4-32.6-15.3-39.9-23.9c-11.6-14-27.3-26.1-42.1-36.6
			c-8-5.7-15.9-11.7-24.2-17c-12.2-7.8-9.9,3.2-21.6,3.4c-10.6,0.2-21.3-1.9-32-1.9c-11,0-22.1,0.3-33.1,0.6
			c-21.7,0.7-43.3,2.2-65,3.2c-8.9,1.6-49.1-0.6-47.9,14c0.7,7.9,7.8,13.2,11.6,19.5c6.4,9.3,13,18.6,19.9,27.5
			c12.2,15.8,25.5,30.7,38.8,45.5c6.3,7,12.3,14.1,18.6,21.1c4.6,5,16.2,13.6,14.5,21.2c-9.4,42.3-10.4,85.3,3.8,126.9
			c3.2,9.5,6.9,19.1,11.1,28.2c1.6,3.6,3.6,6.9,5.6,10.3c4.1,6,7.9,3.8,14.5,3c22.6-2.5,45.4-3.2,68.1-2.9
			c8.4,0.1,17.6-0.7,24.8,4.5c7,5.5-5.2,13.8-9,16.7c-16.2,13.9-36.4,22.1-53.3,34.9c4.2,6.8,28.9,32.7,36.8,25.2
			c12.6-11.9,27.5-21.4,42.9-29.3c7.1-3.6,15.8-8.5,24.1-6.1c7,3.4,3.6,16,2.8,21.7c-1.4,10-5.4,20.2-9,29.5
			c-1.6,4.2-3.5,8.2-4.9,12.5c-2.2,6.9,3.1,6,8.7,8c78.2,27.5,167,22.5,246.3,3c74.1-18.2,139.1-57.8,192.5-111.7
			c54.7-55.2,100-129.3,100.1-209.4c-14.2,1.2-28.6,1.9-42.8,1.5c-9.9-0.3-39,0.7-42.2-12.4c-3.5-11,15.9-22.6,22.9-27.6
			C863.2,531.8,877.4,523.4,891.8,514.8z M566.3,993.6c10.8-14.6,16.8-28.7,9-46.6c-3.4-7.9-5.2-12.2-14.2-10.7
			c-10.2,1.7-20.5,2.9-30.9,3.6c-19,1.4-38,1.4-57,1.1c-17.8-0.6-35.6-1.6-53.1-5.1c-8-1.6-15.9-3.4-23.9-5
			c-11.7-2-13.4,0.2-23.1,6.7c-6.8,4.6-13.3,11.1-21.4,13.4c-11.9,3.3-10.4-8.4-10.4-16.4c0-6.5,4.8-19.5-1.8-23.2
			c-3.4-1.9-15.6-9.2-19.4-6.2c-8.7,8.9-9,34.9-8,46.3c1.4,16.5,10.8,30.7,27.2,35.4c16.1,4.6,36.3,0.8,51-6.6
			c5-2.2,10.6-6.4,13.8,0.1c2.8,7.5,8.5,15.4,14.7,20.4c15.5,12.5,26.8,2,37.5-10.7c5.8-6.8,30.1-27.9,30.2-5.9
			c-0.3,7.4-0.6,12.6,5.3,18c6.9,6.2,18.1-2.5,24.5-5.7c5.5-2.3,12.8-42.7,26.5-19.9c2.6,7-3.1,17,3.5,21.5
			C556.1,1004.6,559.9,1002.3,566.3,993.6z"/>
		<path class="st1" d="M1342.7,1474.5c0,13.4,1.2,27.5-0.6,40.7c-0.2,7.9-0.1,15.9-0.1,23.9c0,7-5.3,8.2-11.3,11.1
			c-11.5,5.6-24.5,7.5-37.1,7.8c-14.2,0.3-29.8,0.2-42.3-7.7c-10.8-6.9-10.6-17.6-11.8-29.7c-1.5-14.9-2.6-29.7-3.4-44.6
			c-0.7-12.7,0.4-26.8-3.9-39c8.6-0.5,21.4,9.7,30,12.2c10.5,3.1,20.2,2.7,31.1,3c16.1,0.7,37.3-5.4,45.6-20.4c-2.8,5,0.5,0,0,0
			C1343.5,1431.3,1342.7,1468.6,1342.7,1474.5z"/>
		<path d="M1338.9,1431.7C1339.4,1431.7,1336.2,1436.7,1338.9,1431.7C1338.9,1431.7,1338.9,1431.7,1338.9,1431.7z"/>
		<path class="st1" d="M1338.9,1311.8c0.8,9.9,3.3,13.5-6.9,17.4c-21.8,8.5-68.1,24-87.9,5.8c-5.4-4.9-7.7-4-7.8-12.4
			c-0.2-9.3,0.2-18.5,0.5-27.8c0.4-14.5,0.8-31.1-2.9-45.1c5.4,1,10.7,9.5,15.5,12.5c6.5,4.1,13,7.3,20.8,8.5
			c14.7,2.2,30.9,1.5,45.2-2.5c6.4-1.8,14.2-6.2,20.9-5.8c2.5,7.1,1.7,16.8,2,24.3C1338.5,1295,1338.1,1303.4,1338.9,1311.8z"/>
		<path class="st1" d="M1325.9,1143c0.7,11.9,0.9,14.2-8.1,22.8c-8,5.1-17.3,7.8-26.4,10.2c-18.3,4.8-35.4-1.2-53-6.2
			c-8.2-2.3-5.6-48-6.6-57.8c25.2-1.2,48.3-2.3,73.1-7.3c2.8-0.6,11.3-6.9,13.7-4c2.4,2.9,2.6,8.7,3.3,12.2
			C1323.9,1122.7,1325.4,1132.8,1325.9,1143z"/>
		<path class="st1" d="M1250.5,960c8.1-0.9,40.5,41.6,34.7,47c-14.4,16.6-36.9,37.4-59.5,40.7c-2.1,0.3-12.3,3.2-13.6,0
			c-3.1-5.7-6-11.4-9.6-16.8c-7.5-11.3-3-12.1,7.4-19.4C1226.8,999.4,1249.4,982.4,1250.5,960z"/>
		<path d="M1248.4,139.6c28.2,70.2,3.6,157.1-60.2,199.2c-13.5,8.2-26.1,15.8-40.2,22.9c-17.8,8.9-40.7,12.1-60.4,13
			c-40.6,1.8-76.8-8-110.6-30.6c-7.7-5.1-14.8-11.3-21.5-17.7c-6.9-6.6-7.9-12.3-17.3-8.2c-11.6,5.1-47.1,7.8-32.5-14.6
			c4.8-7.4,12.9-11,18.2-17.6c-0.6-7.4-6.9-16-9.2-23.2c-6.8-20.6-9.8-41.1-10.5-62.8c2.3-22.1,5.4-40.6,12.8-61.6
			c8.1-23.2,24.2-40.9,39.7-59.2c26.6-31.3,72.8-46.2,112.1-51c20.2-0.6,38.9-0.2,58.6,4.8c19.8,5,37.1,13.5,54.2,24.3
			C1212.7,76.7,1234.8,105.8,1248.4,139.6z M1134.6,38C1134.7,41.4,1137.4,36.4,1134.6,38L1134.6,38z"/>
		<path class="st1" d="M1174.2,898c8.6,4.9,4.2,9.7,0.6,17.8c-3.3,7.3-7.5,13.9-11.2,21c-7.1,13.3-15,25.4-24.8,36.9
			c-4.6,5.3-20.7,0.3-26.4-0.6c-9.8-0.1-19.6-0.5-29.3,0.7c-17.1,2-29.8,10.9-45.9,15.1c-39.9,10.3-84.3,8.7-125.1,6.2
			c-10.6-0.6-26.4,0.5-36.1-3.8c0.9-8.2,0.3-16.7-3.4-24.2c-5.1-8-15.9,5-20.3,7.9c-7.1,5.4-14.9,9.9-23.1,13.2
			c-16.8,6.8-39.2,8.5-47.3-11.3c-2.5-6.1-4.2-15.6-13.5-13.1c-7.4,1.9-14.5,11.5-19.7,16.6c-11,10.8-28.7,29-42.8,11
			c-6-7.7-13-34.6-26.1-31.6c-17.3,4-16.4,35.6-35.5,38c-21.2,2.7-23.5-18.9-20.4-34c8.6-41.1,53-53.8,88.6-59c19.9-2.9,40-4,59.9-6
			c7.9-0.8,11.6-7.1,6.8-14.1c-4.9-7.1-15.3-12.2-23.1-15.4c0.7-5.5,15.3-12.5,19.3-15.8c9-7.2,11.2-11.6,22.9-7.7
			c18.3,6,32.7,14.8,46.4,28.2c4.8,4.7,14.2,14,21.9,10.3c8.9-4.3,0.8-21.8-2.4-27.4c-11-19.2-26.2-28.9-43.8-40.8
			c7-13.1,21.8-22.2,30-34.8c3.1-6,33.6,19.9,37.3,23.1c12.8,11.1,23.2,24.2,34.8,36.4c16.8,17.7,13-13.7,10.6-22.7
			c-4.5-16.7-11.3-33.6-21.4-47.7c-5.1-7.1-11.3-15.7-18.1-21.2c-4-3.8-11.2-5.8-8.2-11.9c19.8-29.4,29.2-62.1,43.4-93.9
			c2.2,12.7-4.9,28.8,0.8,40.8c6.1,12.9,20.2-2.9,25.4-8.3c18-18.8,25-48,28.1-73c8.3-0.9,17.3,3.8,24.8,6.8
			c4.7,1.9,9.4,3.8,14.2,5.4c-0.3,3.3-0.5,6.5-0.8,9.8c-1.6,17-3.1,35.5-11.2,50.8c-6.3,12.1-12.2,32.3,9.2,25.3
			c15.2-5,27.3-16.2,39-26.6c6.7-6,12.8-11.9,18.3-19.2c5.4,0.8,8.3,5.7,11.6,9.7c8,9.4-5.6,29.8-10.7,39.7
			c-5.4,10.4-23.7,26.2-20.2,38.8c3.9,14.6,26.3,7.3,35.9,4.3c9.7-3.1,19.2-6.9,28.6-10.8c8.5-3.2,8.5-3.3,11.9,6.1
			c4.3,11.8,1.1,13-7.9,20.7c-5.9,5-11.5,11.3-18.3,15.1c-11.5,6.4-26.9,13.7-11.6,27.8c11.3,8.7,29.8,12.1,43.7,13.8
			c12,1.4,9.1,8.7,9.4,19.6c0.2,8.2-0.4,16.1-1.2,24.2c-0.9,10.1-3.8,16.3,5.6,21.8C1160.7,889.6,1167.3,894,1174.2,898z"/>
		<path d="M1031.9,140c0-0.1,0-0.1,0.1-0.2c-0.1,0.4-0.2,0.8-0.3,1.1c0-0.1,0.1-0.3,0.1-0.4C1031.8,140.3,1031.8,140.1,1031.9,140z"
			/>
		<path class="st1" d="M540,593.3c0.3-0.1,1.3-0.4,3.7-1c-15.7,4.6-63.7,25.7-25.2,36.6c8.3,2.4,16,2.6,24.6,2.7
			c3,5.1,5,10.7,6.5,16.4c1.2,4.3,2.1,9.2,2.5,14.1c0.6,7.3,0,14.8-2.8,21.1c-2.6,5.8-8,10.8-13.9,13.3c-5.3,2.2-12.7-0.8-16.3,4
			c-9.2,12.1,6.8,13.5,15,11.3c13-3.4,22-10.9,28-22.7c4.4-8,1.7-18,1-27.2c-0.2-2.4-0.2-4.7,0-7c6,1.2,11.7,7.6,17.2,10.3
			c5.3,2.2,11.2,3.2,17,2.9c11.9-0.5,22.4-6.1,32.2-12.5c6-3.9,18.9-14.3,6.2-20c-5.4-2-19.9,12.6-24.3,15.9
			c-21.3,13.9-43.7-8.2-54.9-24.4c-5.5-8,5.1-20.5,8.5-28.1c6.1-11.2-15.7-8.3-20.6-7c0.4-0.1,0.6-0.2,0.7-0.2
			C544.6,591.9,540.6,593.1,540,593.3z M735.1,272.4c0.2-0.1,1.5-1.1,4.8-3.6c-16.5,12.5-32,26.5-48,39.6
			c-5.1,4.2-19.2,9.2-7.3,14.1c8.8,3.6,18.3,5.6,27.4,8.3c10.8,3.1,22.1,7.9,33.1,9.7c9.3,1.5,3.7-13.4,2.9-18.5
			c-1.9-12-3.4-24.2-4.7-36.2c-0.2-1.8,0.1-19.8-2.6-17.5C741.2,267.7,735.4,272.1,735.1,272.4z M898.6,505.2c1.7,6-2,6.7-6.8,9.6
			c-14.4,8.6-28.6,17-42.3,26.6c-7,4.9-26.4,16.5-22.9,27.6c3.2,13.1,32.3,12.2,42.2,12.4c14.3,0.4,28.6-0.3,42.8-1.5
			c-0.2,80.1-45.5,154.2-100.1,209.4C758.1,843.2,693,882.8,619,901c-79.3,19.4-168.1,24.5-246.3-3c-5.6-2-10.9-1.1-8.7-8
			c1.4-4.3,3.3-8.3,4.9-12.5c3.7-9.4,7.6-19.5,9-29.5c0.8-5.7,4.2-18.3-2.8-21.7c-8.2-2.5-17,2.4-24.1,6.1
			c-15.4,7.9-30.4,17.4-42.9,29.3c-7.9,7.5-32.5-18.4-36.8-25.2c16.9-12.8,37.1-20.9,53.3-34.9c3.8-2.8,16-11.2,9-16.7
			c-7.1-5.2-16.4-4.4-24.8-4.5c-22.7-0.2-45.5,0.4-68.1,2.9c-6.7,0.8-10.5,3-14.5-3c-1.9-3.4-3.9-6.8-5.6-10.3
			c-4.1-9.1-7.9-18.7-11.1-28.2c-14.1-41.6-13.2-84.5-3.8-126.9c1.7-7.6-10-16.2-14.5-21.2c-6.3-7-12.4-14.1-18.6-21.1
			c-13.3-14.8-26.6-29.7-38.8-45.5c-6.9-9-13.5-18.2-19.9-27.5c-3.8-6.4-10.9-11.6-11.6-19.5c-1.2-14.5,39.1-12.3,47.9-14
			c21.7-1,43.3-2.5,65-3.2c11-0.3,22.1-0.6,33.1-0.6c10.7,0,21.4,2.1,32,1.9c11.6-0.2,9.3-11.2,21.6-3.4c8.3,5.3,16.2,11.2,24.2,17
			c14.8,10.5,30.5,22.6,42.1,36.6c7.2,8.7,26.1,36.3,39.9,23.9c11.4-13.5,2.7-39.7-4-53.3c-9.1-18.5-26.3-33.7-42-46.6
			c-7.4-6.4-15.5-11.8-23-18c-2.8-1.6,13.9-12.6,15.7-13.8c4.2-2.9,20.6-17.1,25.6-14.7c7.6,3.6,14.1,12.6,20.3,18.2
			c14.9,13.5,29.1,28.7,41.7,44.4c11.5,14.2,20.4,36.5,36.7,45.9c18.9,13.4,18.7-29.9,18.5-37.3c-0.4-21.5-3.2-41.1-12.9-60.6
			c-4-8.1-8.5-15.6-13.6-23.1c-5.1-7.3-13.6-15-16.8-23.3c10.2-3.7,27.1-13.5,35.5-4.8c10,10.4,19.7,21,29.4,31.6
			c17.6,19.5,32.8,46.8,55.3,61.1c29.3,18.8,33.4-26.5,28-45.3c-5-24.5-21.2-50.6-40.5-66.5c8-5.1,25.7-5.2,34.9-4.5
			c9.2,0.7,14.7,2.8,21.7-4c13.1-15,27.5-28.8,41.4-43.1c28.1-29.2,55.7-59.5,85.1-87.4c28.8-26.3,33.3,45.7,35.1,61.5
			c3.5,32.3,8.1,64.4,11.8,96.7c1,8.4,1.3,16.8,1.4,25.2c0.1,8.4,4.9,7.7,11.9,11c13,6.2,25.6,14.4,36.2,24.1
			c4.8,4.4,10.1,9,13.8,14.4c4.1,5.9-4.5,11.3-8.5,15.7c-9.7,10.9-18.9,22.4-26.8,34.8c-4.5,7.1-20.9,30.9-4.3,34.2
			c12.3,2.4,27.8-5.1,38.5-10.2c6.9-3.3,13.9-6.5,20.3-10.6c5.3-3.2,13.3-11.7,16.7-4.3C894.4,491.8,896.6,498.6,898.6,505.2z
			 M762.7,481.2c1.2-7.2,6.1-11.1,0.3-18.4c-4.5-5.7-11.7-6.5-18.3-5.2c-6.7,2.8-7,11.4-9.2,17.2c-2.6,7-7.6,13.1-12.7,18.5
			c-10.8,11.3-26.7,21.4-42.5,23c-7.3,0.8-18.1,1.7-23.6-4.4c-4.3-4.4-11.6-7-17.5-4.4c-14,6.2-8.7,22.6,1.5,28.8
			c31.4,19.2,68.4,5.4,94.8-15.7C747.4,511.2,760.2,496.6,762.7,481.2z M416.8,660.5c0.8-6.4,5.1-9.2,2.3-16.1
			c-3-7.5-10.6-10.7-18.4-8.9c3.5-0.8-3.2,0.5,0,0c-8.4,1.2-9.5,12.7-12,19.1c-2.7,7.2-7.6,13.2-13,18.6
			c-10.4,10.5-28.3,21.9-43.5,22c-8.2,0.1-18,1.2-23.8-5.9c-3.6-4.5-11.5-6.1-16.5-2.5c-12.8,9.1-6.7,23.6,4.9,30.1
			c31,15.2,66.2,5.9,91.7-16.3C399.7,690.8,414.8,676,416.8,660.5z M223.2,527.2c2.4-8.1,8.5-18.8,7.8-27.5
			c-23-1.1-45.9,3.6-68.9,2.6c0,0,0,0,0,0c-0.3,9.4,20.9,24.5,27.1,30.7c4.7,4.8,9.4,9.5,14,14.3c2.9,3,5.6,9,9.2,11.2
			C217.1,548.6,220,537.8,223.2,527.2z"/>
		<path d="M763,462.8c5.8,7.4,0.8,11.2-0.3,18.4c-2.5,15.4-15.3,30-27.2,39.5c-26.4,21.1-63.4,34.8-94.8,15.7
			c-10.2-6.2-15.5-22.7-1.5-28.8c5.9-2.6,13.2,0,17.5,4.4c5.5,6.1,16.3,5.2,23.6,4.4c15.8-1.7,31.8-11.7,42.5-23
			c5.1-5.4,10-11.5,12.7-18.5c2.2-5.8,2.5-14.4,9.2-17.2C751.3,456.3,758.5,457.1,763,462.8z"/>
		<path d="M748.1,322c0.8,5.2,6.3,20.1-2.9,18.5c-11.1-1.8-22.3-6.6-33.1-9.7c-9.1-2.6-18.6-4.7-27.4-8.3
			c-11.9-4.8,2.2-9.9,7.3-14.1c16-13.2,31.5-27.1,48-39.6c0.2-0.2,0.5-0.4,0.7-0.6c0,0,0,0,0.1-0.1c2.7-2.2,2.4,15.7,2.6,17.5
			C744.7,297.9,746.2,310,748.1,322z"/>
		<path d="M735.1,272.4c0.3-0.3,6.1-4.7,5.7-4.2c0,0,0,0-0.1,0.1c-0.2,0.2-0.5,0.4-0.7,0.6C736.6,271.4,735.3,272.3,735.1,272.4z"/>
		<path class="st1" d="M575.4,947c7.8,17.9,1.7,31.9-9,46.6c-6.4,8.7-10.2,11.1-19.8,4.5c-6.5-4.5-0.9-14.6-3.5-21.5
			c-13.7-22.8-20.9,17.6-26.5,19.9c-6.5,3.2-17.6,12-24.5,5.7c-6-5.4-5.6-10.6-5.3-18c-0.1-22.1-24.5-0.9-30.2,5.9
			c-10.7,12.6-22,23.1-37.5,10.7c-6.2-4.9-11.9-12.9-14.7-20.4c-3.2-6.5-8.8-2.3-13.8-0.1c-14.7,7.3-34.9,11.2-51,6.6
			c-16.4-4.7-25.9-18.9-27.2-35.4c-0.9-11.4-0.6-37.4,8-46.3c3.8-3,16,4.3,19.4,6.2c6.6,3.7,1.9,16.7,1.8,23.2
			c0,8-1.5,19.7,10.4,16.4c8-2.3,14.6-8.8,21.4-13.4c9.7-6.5,11.4-8.7,23.1-6.7c8,1.5,15.9,3.4,23.9,5c17.5,3.5,35.3,4.6,53.1,5.1
			c19,0.3,38,0.2,57-1.1c10.3-0.8,20.6-1.9,30.9-3.6C570.1,934.8,571.9,939.1,575.4,947z"/>
		<path d="M635.8,635.6c-5.4-2-19.9,12.6-24.3,15.9c-21.3,13.9-43.7-8.2-54.9-24.4c-5.5-8,5.1-20.5,8.5-28.1
			c6.1-11.2-15.7-8.3-20.6-7c-0.1,0-0.2,0-0.2,0.1c-0.2,0-0.4,0.1-0.6,0.2c-15.7,4.6-63.7,25.7-25.2,36.6c8.3,2.4,16,2.6,24.6,2.7
			c3,5.1,5,10.7,6.5,16.4c1.2,4.3,2.1,9.2,2.5,14.1c0.6,7.3,0,14.8-2.8,21.1c-2.6,5.8-8,10.8-13.9,13.3c-5.3,2.2-12.6-0.8-16.3,4
			c-9.2,12.1,6.8,13.5,15,11.3c13-3.4,22-10.9,28-22.7c4.4-8,1.7-18,1-27.2c-0.2-2.4-0.2-4.7,0-7c6,1.2,11.7,7.6,17.2,10.3
			c5.3,2.2,11.2,3.2,17,2.9c11.9-0.5,22.4-6.1,32.2-12.5C635.6,651.6,648.5,641.3,635.8,635.6z"/>
		<path d="M545.3,591.8c-0.1,0-0.3,0.1-0.7,0.2c-0.1,0-0.2,0-0.2,0.1c-0.2,0-0.4,0.1-0.6,0.2c-2.4,0.7-3.5,1-3.7,1
			C540.6,593.1,544.6,591.9,545.3,591.8z"/>
		<path d="M419.1,644.4c2.8,6.9-1.5,9.7-2.3,16.1c-2,15.5-17.1,30.3-28.3,40.1c-25.5,22.2-60.7,31.5-91.7,16.3
			c-11.6-6.5-17.6-21-4.9-30.1c5-3.6,12.9-1.9,16.5,2.5c5.8,7.1,15.7,6,23.8,5.9c15.2-0.1,33.1-11.6,43.5-22
			c5.4-5.4,10.3-11.5,13-18.6c2.4-6.4,3.6-17.8,12-19.1C408.4,633.7,416,636.9,419.1,644.4z"/>
		<path d="M400.7,635.4C397.4,635.9,404.2,634.7,400.7,635.4L400.7,635.4z"/>
		<path d="M230.9,499.8c0.7,8.7-5.3,19.3-7.8,27.5c-3.2,10.6-6,21.3-10.8,31.4c-3.6-2.2-6.3-8.1-9.2-11.2c-4.6-4.8-9.3-9.6-14-14.3
			c-6.1-6.2-27.4-21.3-27.1-30.7c0,4,22.9,1,0,0C185.1,503.4,207.9,498.7,230.9,499.8z"/>
		<path d="M162,502.4C185,503.4,162,506.4,162,502.4C162,502.4,162,502.4,162,502.4z"/>
	</g>
	<g>
		<path d="M497.2,1033.4H366.6l-129.7,255.4v71.7h148.9v89.6h111.3v-89.6H542v-79h-44.9V1033.4z M335.7,1281.4l50.2-114.1v114.1
			H335.7z"/>
		<path d="M814.7,1062.3c-24.3-23.1-59.9-34.8-105.9-34.8c-46.2,0-82,11.7-106.4,34.8c-22.8,21.6-34.8,53.2-34.8,91.3v180.6
			c0,36.9,12.6,67.7,36.3,89.2c24.5,22.2,60.8,34,104.9,34c86.7,0,140.6-47.2,140.6-123.2v-180.6
			C849.4,1115.5,837.4,1083.9,814.7,1062.3z M687.9,1154.7c0-7.5,0-17.7,3.1-25.2c3.8-9.4,11.2-10.7,17.8-10.7
			c13.6,0,20.9,5.9,20.9,36.8v176.7c0,24-6.1,33.8-20.9,33.8c-9.7,0-20.9-3.8-20.9-33.8v-176.7L687.9,1154.7z"/>
		<path d="M1139.5,1281.4v-248.1h-130.5l-128.7,253.5l-1,1.9v71.7h148.9v89.6h111.3v-89.6h44.9v-79H1139.5z M978,1281.4l50.2-114.1
			v114.1H978z"/>
	</g>
	<rect x="138.5" y="1643.2" class="st2" width="3.4" height="0"/>
	<g>
		<path d="M249.2,1469h80.3l105.8,193.1V1469h94.3v401.1h-77.1l-105.8-208v208h-97.5V1469z"/>
		<path d="M979.3,1534.9h-77.7V1469H1171v65.9H1094v335.3H979.3V1534.9z"/>
	</g>
	<g>
		<path d="M248.9,1894.3H371v42.2h-59.7v71.2h52v43.6h-52V2177h-62.5V1894.3z"/>
		<path d="M396.5,2088v-105.1c0-58.3,21.3-92.5,84.8-92.5c63.9,0,85.5,34.2,85.5,92.5V2088c0,58.3-21.6,93.2-85.5,93.2
			C417.8,2181.2,396.5,2146.3,396.5,2088z M503,2103.7v-136.1c0-16.8-2.1-33.2-21.6-33.2c-18.5,0-20.9,16.4-20.9,33.2v136.1
			c0,16.1,1.4,33.2,20.9,33.2C500.9,2136.9,503,2119.8,503,2103.7z"/>
		<path d="M602.8,2089.4v-195.1h61.8v204.5c0,17.8,2.1,37.3,22,37.3s21.6-19.5,21.6-37.3v-204.5h62.1v195.1
			c0,59.3-18.8,91.8-83.8,91.8C621.3,2181.2,602.8,2148.7,602.8,2089.4z"/>
		<path d="M810.1,1894.3h44l57.9,136.1v-136.1h51.7V2177h-42.2l-57.9-146.6V2177h-53.4V1894.3z"/>
		<path d="M1005.9,1894.3h71.6c73.6,0,94.9,26.5,94.9,89.4v102.6c0,63.5-21.3,90.8-94.2,90.8h-72.3V1894.3z M1078.2,2133.7
			c28.3,0,30-12.2,30-37.7v-123.2c0-24.8-2.8-34.9-30.4-34.9h-9.4v195.8H1078.2z"/>
	</g>
	<path class="st3" d="M777.9,1844.4c-122.3,12.7-348.3-151.5-229.8-288.2c30.8-35.5,119.4-43.5,184.8,42.5
		c3.1-54.4,22-116.9,72.1-129.4c120.5-30.1,129.4,118.8,82.4,239.2C863.2,1770.6,797.1,1842.4,777.9,1844.4z"/>
	<rect x="1326.7" y="770.3" class="st2" width="4.5" height="0"/>
	<text transform="matrix(1.196 0.4559 -0.3562 0.9344 990.2993 231.1282)" class="st1 st4 st5">z</text>
</g>
</svg>
